<svg width="52" height="52" viewBox="0 0 52 52" fill="none" xmlns="http://www.w3.org/2000/svg">
<path d="M41.6651 33.0634L36.1617 32.4351C35.5146 32.3591 34.8587 32.4307 34.2433 32.6446C33.6278 32.8585 33.0689 33.2091 32.6084 33.6701L28.6217 37.6567C22.471 34.5285 17.4716 29.5292 14.3434 23.3784L18.3517 19.3701C19.2834 18.4384 19.7384 17.1384 19.5867 15.8167L18.9584 10.3567C18.8356 9.29978 18.3283 8.32491 17.5333 7.61773C16.7382 6.91056 15.7108 6.52047 14.6468 6.52173H10.8984C8.45009 6.52173 6.41342 8.5584 6.56509 11.0067C7.71342 29.5101 22.5117 44.2867 40.9934 45.4351C43.4417 45.5867 45.4784 43.5501 45.4784 41.1017V37.3534C45.5001 35.1651 43.8534 33.3234 41.6651 33.0634Z" fill="#294283"/>
</svg>
