<svg width="112" height="113" viewBox="0 0 112 113" fill="none" xmlns="http://www.w3.org/2000/svg">
<path d="M29.6021 97.0463L31.4332 97.9618C39.0626 102.539 47.6076 104.676 56.1525 104.676C83.0081 104.676 104.981 82.703 104.981 55.8474C104.981 43.0299 99.7929 30.5177 90.6376 21.3624C81.4822 12.2071 69.2751 7.01904 56.1525 7.01904C29.2969 7.01904 7.32418 28.9918 7.62936 56.1526C7.62936 65.3079 10.376 74.158 14.9536 81.7874L16.1743 83.6185L11.2915 101.624L29.6021 97.0463Z" fill="#00E676"/>
<path d="M95.8256 16.4796C85.4496 5.79837 71.1063 0 56.4578 0C25.3297 0 0.305177 25.3297 0.610354 56.1526C0.610354 65.9183 3.35695 75.3787 7.9346 83.9237L0 112.916L29.6022 105.286C37.842 109.864 46.9973 112 56.1526 112C86.9755 112 112 86.6703 112 55.8474C112 40.8937 106.202 26.8556 95.8256 16.4796ZM56.4578 102.54C48.218 102.54 39.9782 100.403 32.9591 96.1308L31.1281 95.2153L13.4278 99.7929L18.0055 82.3978L16.7847 80.5668C3.35695 58.8992 9.76567 30.2125 31.7384 16.7847C53.7112 3.35695 82.0926 9.76567 95.5204 31.7384C108.948 53.7112 102.54 82.0926 80.5668 95.5204C73.5477 100.098 65.0027 102.54 56.4578 102.54ZM83.3134 68.6648L79.9564 67.139C79.9564 67.139 75.0736 65.0027 72.0218 63.4768C71.7166 63.4768 71.4114 63.1717 71.1063 63.1717C70.1907 63.1717 69.5804 63.4768 68.97 63.782C68.97 63.782 68.6649 64.0872 64.3924 68.97C64.0872 69.5804 63.4768 69.8856 62.8665 69.8856H62.5613C62.2561 69.8856 61.6458 69.5804 61.3406 69.2752L59.8147 68.6648C56.4578 67.139 53.406 65.3079 50.9646 62.8665C50.3542 62.2561 49.4387 61.6458 48.8283 61.0354C46.6921 58.8992 44.5559 56.4578 43.03 53.7112L42.7248 53.1008C42.4196 52.7956 42.4196 52.4905 42.1144 51.8801C42.1144 51.2698 42.1144 50.6594 42.4196 50.3542C42.4196 50.3542 43.6403 48.8283 44.5559 47.9128C45.1662 47.3025 45.4714 46.3869 46.0817 45.7766C46.6921 44.861 46.9973 43.6403 46.6921 42.7248C46.3869 41.1989 42.7248 32.9591 41.8093 31.1281C41.1989 30.2125 40.5886 29.9074 39.673 29.6022H38.7575C38.1471 29.6022 37.2316 29.6022 36.3161 29.6022C35.7057 29.6022 35.0954 29.9074 34.485 29.9074L34.1798 30.2125C33.5695 30.5177 32.9591 31.1281 32.3488 31.4332C31.7384 32.0436 31.4332 32.6539 30.8229 33.2643C28.6867 36.0109 27.4659 39.3678 27.4659 42.7248C27.4659 45.1662 28.0763 47.6076 28.9918 49.7439L29.297 50.6594C32.0436 56.4578 35.7057 61.6458 40.5886 66.2234L41.8093 67.4441C42.7248 68.3597 43.6403 68.97 44.2507 69.8856C50.6594 75.3787 57.9837 79.346 66.2234 81.4823C67.139 81.7875 68.3597 81.7875 69.2752 82.0926C70.1907 82.0926 71.4114 82.0926 72.327 82.0926C73.8529 82.0926 75.6839 81.4823 76.9046 80.8719C77.8202 80.2616 78.4305 80.2616 79.0409 79.6512L79.6512 79.0409C80.2616 78.4305 80.8719 78.1253 81.4823 77.515C82.0926 76.9046 82.703 76.2943 83.0082 75.6839C83.6185 74.4632 83.9237 72.9373 84.2289 71.4114C84.2289 70.8011 84.2289 69.8856 84.2289 69.2752C84.2289 69.2752 83.9237 68.97 83.3134 68.6648Z" fill="white"/>
</svg>
